<?xml version="1.0" standalone="no"?><svg xmlns="http://www.w3.org/2000/svg" viewBox="0 0 1440 320"><path fill="#DEDBD9" fill-opacity="1" d="M0,320L40,309.3C80,299,160,277,240,229.3C320,181,400,107,480,80C560,53,640,75,720,106.7C800,139,880,181,960,181.3C1040,181,1120,139,1200,106.7C1280,75,1360,53,1400,42.7L1440,32L1440,320L1400,320C1360,320,1280,320,1200,320C1120,320,1040,320,960,320C880,320,800,320,720,320C640,320,560,320,480,320C400,320,320,320,240,320C160,320,80,320,40,320L0,320Z"></path></svg>